<?xml version="1.0" encoding="UTF-8"?>
<svg xmlns="http://www.w3.org/2000/svg" xmlns:xlink="http://www.w3.org/1999/xlink" width="32px" height="32px" viewBox="0 0 32 32" version="1.1">
<g id="surface1">
<path style="fill:none;stroke-width:2;stroke-linecap:round;stroke-linejoin:round;stroke:rgb(0%,0%,0%);stroke-opacity:1;stroke-miterlimit:4;" d="M 12.999023 9 L 15 15 L 17.000977 9 M 9.999023 15 C 9.067383 15 8.601562 15 8.235352 14.847656 C 7.743164 14.645508 7.356445 14.255859 7.151367 13.766602 C 6.999023 13.397461 6.999023 12.931641 6.999023 12 C 6.999023 11.068359 6.999023 10.602539 7.151367 10.233398 C 7.356445 9.744141 7.743164 9.354492 8.235352 9.152344 C 8.601562 9 9.067383 9 9.999023 9 M 7.201172 20.000977 L 16.798828 20.000977 C 17.920898 20.000977 18.480469 20.000977 18.908203 19.78125 C 19.283203 19.59082 19.59082 19.283203 19.78125 18.908203 C 20.000977 18.480469 20.000977 17.920898 20.000977 16.798828 L 20.000977 7.201172 C 20.000977 6.079102 20.000977 5.519531 19.78125 5.091797 C 19.59082 4.716797 19.283203 4.40918 18.908203 4.21875 C 18.480469 3.999023 17.920898 3.999023 16.798828 3.999023 L 7.201172 3.999023 C 6.079102 3.999023 5.519531 3.999023 5.091797 4.21875 C 4.716797 4.40918 4.40918 4.716797 4.21875 5.091797 C 3.999023 5.519531 3.999023 6.079102 3.999023 7.201172 L 3.999023 16.798828 C 3.999023 17.920898 3.999023 18.480469 4.21875 18.908203 C 4.40918 19.283203 4.716797 19.59082 5.091797 19.78125 C 5.519531 20.000977 6.079102 20.000977 7.201172 20.000977 Z M 7.201172 20.000977 " transform="matrix(1.333333,0,0,1.333333,0,0)"/>
</g>
</svg>
