<?xml version="1.0" encoding="UTF-8"?>
<svg xmlns="http://www.w3.org/2000/svg" xmlns:xlink="http://www.w3.org/1999/xlink" width="32px" height="32px" viewBox="0 0 32 32" version="1.1">
<defs>
<filter id="alpha" filterUnits="objectBoundingBox" x="0%" y="0%" width="100%" height="100%">
  <feColorMatrix type="matrix" in="SourceGraphic" values="0 0 0 0 1 0 0 0 0 1 0 0 0 0 1 0 0 0 1 0"/>
</filter>
<mask id="mask0">
  <g filter="url(#alpha)">
<rect x="0" y="0" width="32" height="32" style="fill:rgb(0%,0%,0%);fill-opacity:0.368627;stroke:none;"/>
  </g>
</mask>
<clipPath id="clip1">
  <rect x="0" y="0" width="32" height="32"/>
</clipPath>
<g id="surface5" clip-path="url(#clip1)">
<path style=" stroke:none;fill-rule:evenodd;fill:rgb(79.215686%,79.215686%,80%);fill-opacity:1;" d="M 25.441406 4.960938 C 19.507812 4.960938 13.578125 4.960938 7.648438 4.960938 C 7.761719 4.910156 7.890625 4.875 8.03125 4.863281 C 13.726562 4.820312 19.425781 4.820312 25.121094 4.863281 C 25.242188 4.875 25.347656 4.910156 25.441406 4.960938 Z M 25.441406 4.960938 "/>
</g>
<mask id="mask1">
  <g filter="url(#alpha)">
<rect x="0" y="0" width="32" height="32" style="fill:rgb(0%,0%,0%);fill-opacity:0.996078;stroke:none;"/>
  </g>
</mask>
<clipPath id="clip2">
  <rect x="0" y="0" width="32" height="32"/>
</clipPath>
<g id="surface8" clip-path="url(#clip2)">
<path style=" stroke:none;fill-rule:evenodd;fill:rgb(99.215686%,99.215686%,99.215686%);fill-opacity:1;" d="M 7.648438 4.960938 C 13.578125 4.960938 19.507812 4.960938 25.441406 4.960938 C 25.699219 4.984375 25.933594 5.070312 26.144531 5.214844 C 26.171875 5.300781 26.253906 5.367188 26.398438 5.40625 C 26.507812 5.429688 26.570312 5.496094 26.59375 5.601562 C 26.628906 5.742188 26.714844 5.851562 26.847656 5.921875 C 26.988281 6.113281 27.09375 6.328125 27.167969 6.558594 C 27.128906 6.597656 27.105469 6.652344 27.105469 6.71875 C 27.144531 12.777344 27.1875 18.824219 27.230469 24.863281 C 27.230469 24.886719 27.230469 24.90625 27.230469 24.929688 C 27.125 25.050781 27.082031 25.203125 27.105469 25.375 C 26.871094 26.25 26.316406 26.804688 25.441406 27.039062 C 19.5 26.976562 13.546875 26.953125 7.585938 26.976562 C 6.648438 26.765625 6.070312 26.1875 5.855469 25.246094 C 5.910156 19.050781 5.941406 12.84375 5.953125 6.625 C 5.964844 6.503906 6.019531 6.40625 6.113281 6.335938 C 6.0625 6.292969 6.042969 6.238281 6.046875 6.175781 C 6.0625 6.035156 6.128906 5.929688 6.238281 5.855469 C 6.328125 5.824219 6.371094 5.761719 6.367188 5.664062 C 6.683594 5.230469 7.109375 4.996094 7.648438 4.960938 Z M 7.648438 4.960938 "/>
</g>
<mask id="mask2">
  <g filter="url(#alpha)">
<rect x="0" y="0" width="32" height="32" style="fill:rgb(0%,0%,0%);fill-opacity:0.0117647;stroke:none;"/>
  </g>
</mask>
<clipPath id="clip3">
  <rect x="0" y="0" width="32" height="32"/>
</clipPath>
<g id="surface11" clip-path="url(#clip3)">
<path style=" stroke:none;fill-rule:evenodd;fill:rgb(41.960784%,41.960784%,42.352941%);fill-opacity:1;" d="M 26.144531 5.214844 C 26.265625 5.230469 26.351562 5.296875 26.398438 5.40625 C 26.253906 5.367188 26.171875 5.300781 26.144531 5.214844 Z M 26.144531 5.214844 "/>
</g>
<mask id="mask3">
  <g filter="url(#alpha)">
<rect x="0" y="0" width="32" height="32" style="fill:rgb(0%,0%,0%);fill-opacity:0.184314;stroke:none;"/>
  </g>
</mask>
<clipPath id="clip4">
  <rect x="0" y="0" width="32" height="32"/>
</clipPath>
<g id="surface14" clip-path="url(#clip4)">
<path style=" stroke:none;fill-rule:evenodd;fill:rgb(45.098039%,44.313725%,49.411765%);fill-opacity:1;" d="M 6.367188 5.664062 C 6.371094 5.761719 6.328125 5.824219 6.238281 5.855469 C 6.234375 5.757812 6.277344 5.695312 6.367188 5.664062 Z M 6.367188 5.664062 "/>
</g>
<mask id="mask4">
  <g filter="url(#alpha)">
<rect x="0" y="0" width="32" height="32" style="fill:rgb(0%,0%,0%);fill-opacity:0.2;stroke:none;"/>
  </g>
</mask>
<clipPath id="clip5">
  <rect x="0" y="0" width="32" height="32"/>
</clipPath>
<g id="surface17" clip-path="url(#clip5)">
<path style=" stroke:none;fill-rule:evenodd;fill:rgb(54.117647%,54.509804%,56.078431%);fill-opacity:1;" d="M 26.59375 5.601562 C 26.726562 5.667969 26.8125 5.777344 26.847656 5.921875 C 26.714844 5.851562 26.628906 5.742188 26.59375 5.601562 Z M 26.59375 5.601562 "/>
</g>
<mask id="mask5">
  <g filter="url(#alpha)">
<rect x="0" y="0" width="32" height="32" style="fill:rgb(0%,0%,0%);fill-opacity:0.415686;stroke:none;"/>
  </g>
</mask>
<clipPath id="clip6">
  <rect x="0" y="0" width="32" height="32"/>
</clipPath>
<g id="surface20" clip-path="url(#clip6)">
<path style=" stroke:none;fill-rule:evenodd;fill:rgb(54.117647%,54.509804%,54.901961%);fill-opacity:1;" d="M 6.046875 6.175781 C 6.042969 6.238281 6.0625 6.292969 6.113281 6.335938 C 6.019531 6.40625 5.964844 6.503906 5.953125 6.625 C 5.941406 12.84375 5.910156 19.050781 5.855469 25.246094 C 5.78125 19.191406 5.773438 13.132812 5.824219 7.070312 C 5.828125 6.746094 5.902344 6.449219 6.046875 6.175781 Z M 6.046875 6.175781 "/>
</g>
<mask id="mask6">
  <g filter="url(#alpha)">
<rect x="0" y="0" width="32" height="32" style="fill:rgb(0%,0%,0%);fill-opacity:0.027451;stroke:none;"/>
  </g>
</mask>
<clipPath id="clip7">
  <rect x="0" y="0" width="32" height="32"/>
</clipPath>
<g id="surface23" clip-path="url(#clip7)">
<path style=" stroke:none;fill-rule:evenodd;fill:rgb(40%,40%,40%);fill-opacity:1;" d="M 27.167969 6.558594 C 27.230469 12.660156 27.253906 18.761719 27.230469 24.863281 C 27.1875 18.824219 27.144531 12.777344 27.105469 6.71875 C 27.105469 6.652344 27.128906 6.597656 27.167969 6.558594 Z M 27.167969 6.558594 "/>
</g>
<mask id="mask7">
  <g filter="url(#alpha)">
<rect x="0" y="0" width="32" height="32" style="fill:rgb(0%,0%,0%);fill-opacity:0.262745;stroke:none;"/>
  </g>
</mask>
<clipPath id="clip8">
  <rect x="0" y="0" width="32" height="32"/>
</clipPath>
<g id="surface26" clip-path="url(#clip8)">
<path style=" stroke:none;fill-rule:evenodd;fill:rgb(59.215686%,59.215686%,60%);fill-opacity:1;" d="M 27.230469 24.929688 C 27.21875 25.09375 27.175781 25.242188 27.105469 25.375 C 27.082031 25.203125 27.125 25.050781 27.230469 24.929688 Z M 27.230469 24.929688 "/>
</g>
<mask id="mask8">
  <g filter="url(#alpha)">
<rect x="0" y="0" width="32" height="32" style="fill:rgb(0%,0%,0%);fill-opacity:0.533333;stroke:none;"/>
  </g>
</mask>
<clipPath id="clip9">
  <rect x="0" y="0" width="32" height="32"/>
</clipPath>
<g id="surface29" clip-path="url(#clip9)">
<path style=" stroke:none;fill-rule:evenodd;fill:rgb(74.509804%,74.509804%,75.686275%);fill-opacity:1;" d="M 7.585938 26.976562 C 13.546875 26.953125 19.5 26.976562 25.441406 27.039062 C 19.554688 27.113281 13.664062 27.125 7.777344 27.070312 C 7.695312 27.058594 7.632812 27.023438 7.585938 26.976562 Z M 7.585938 26.976562 "/>
</g>
</defs>
<g id="surface1">
<use xlink:href="#surface5" mask="url(#mask0)"/>
<use xlink:href="#surface8" mask="url(#mask1)"/>
<use xlink:href="#surface11" mask="url(#mask2)"/>
<use xlink:href="#surface14" mask="url(#mask3)"/>
<use xlink:href="#surface17" mask="url(#mask4)"/>
<use xlink:href="#surface20" mask="url(#mask5)"/>
<use xlink:href="#surface23" mask="url(#mask6)"/>
<path style=" stroke:none;fill-rule:evenodd;fill:rgb(2.352941%,2.352941%,2.352941%);fill-opacity:1;" d="M 13.40625 12.640625 C 14.332031 12.578125 15.238281 12.664062 16.128906 12.894531 C 16.289062 12.871094 16.449219 12.847656 16.609375 12.832031 C 16.628906 13.425781 16.605469 14.011719 16.542969 14.59375 C 16.390625 14.660156 16.242188 14.667969 16.097656 14.625 C 15.761719 13.601562 15.058594 13.164062 13.984375 13.3125 C 13.039062 13.597656 12.472656 14.226562 12.289062 15.199219 C 12.128906 16.238281 12.394531 17.144531 13.089844 17.921875 C 13.953125 18.53125 14.828125 18.554688 15.710938 17.984375 C 15.890625 17.800781 16.015625 17.585938 16.097656 17.34375 C 16.261719 17.328125 16.421875 17.363281 16.574219 17.441406 C 16.628906 17.859375 16.617188 18.277344 16.542969 18.6875 C 15.558594 19.09375 14.535156 19.242188 13.472656 19.136719 C 11.699219 18.726562 10.757812 17.617188 10.65625 15.808594 C 10.710938 14.628906 11.246094 13.730469 12.257812 13.121094 C 12.628906 12.914062 13.011719 12.753906 13.40625 12.640625 Z M 13.40625 12.640625 "/>
<path style=" stroke:none;fill-rule:evenodd;fill:rgb(1.960784%,1.960784%,1.960784%);fill-opacity:1;" d="M 17.054688 12.769531 C 17.910156 12.769531 18.761719 12.769531 19.617188 12.769531 C 19.617188 12.9375 19.617188 13.109375 19.617188 13.28125 C 19.464844 13.28125 19.316406 13.28125 19.167969 13.28125 C 19.214844 13.492188 19.269531 13.707031 19.328125 13.921875 C 19.835938 15.085938 20.328125 16.261719 20.800781 17.441406 C 21.410156 16.070312 21.976562 14.683594 22.496094 13.28125 C 22.046875 13.386719 21.878906 13.214844 21.984375 12.769531 C 22.558594 12.769531 23.136719 12.769531 23.710938 12.769531 C 23.710938 12.9375 23.710938 13.109375 23.710938 13.28125 C 23.492188 13.253906 23.289062 13.296875 23.105469 13.40625 C 22.324219 15.273438 21.523438 17.128906 20.703125 18.976562 C 20.457031 19.058594 20.210938 19.058594 19.96875 18.976562 C 19.203125 17.171875 18.457031 15.355469 17.726562 13.535156 C 17.5625 13.308594 17.339844 13.222656 17.054688 13.28125 C 17.054688 13.109375 17.054688 12.9375 17.054688 12.769531 Z M 17.054688 12.769531 "/>
<use xlink:href="#surface26" mask="url(#mask7)"/>
<use xlink:href="#surface29" mask="url(#mask8)"/>
</g>
</svg>
