<?xml version="1.0" encoding="UTF-8"?>
<svg xmlns="http://www.w3.org/2000/svg" xmlns:xlink="http://www.w3.org/1999/xlink" width="32px" height="32px" viewBox="0 0 32 32" version="1.1">
<g id="surface1">
<path style=" stroke:none;fill-rule:nonzero;fill:rgb(0%,0%,0%);fill-opacity:1;" d="M 10.699219 1.675781 C 9.488281 2.695312 9.1875 2.96875 9.1875 3.0625 C 9.1875 3.199219 9.238281 3.257812 10.542969 4.800781 C 11.136719 5.5 11.625 6.101562 11.625 6.132812 C 11.625 6.164062 10.664062 6.1875 9.257812 6.1875 C 7.886719 6.1875 6.820312 6.210938 6.726562 6.25 C 6.636719 6.28125 6.457031 6.425781 6.320312 6.5625 C 5.832031 7.0625 5.867188 6.039062 5.886719 18.46875 L 5.90625 29.59375 L 6.09375 29.96875 C 6.25 30.28125 6.332031 30.367188 6.59375 30.5 L 6.898438 30.65625 L 19.789062 30.695312 L 22.957031 27.710938 L 26.125 24.730469 L 26.125 15.957031 C 26.125 8.179688 26.113281 7.15625 26.03125 6.949219 C 25.898438 6.644531 25.707031 6.445312 25.40625 6.304688 C 25.167969 6.195312 24.886719 6.1875 20.28125 6.1875 L 15.398438 6.1875 L 15.175781 5.949219 C 14.945312 5.710938 12.460938 2.789062 11.730469 1.898438 C 11.5 1.617188 11.269531 1.375 11.21875 1.351562 C 11.164062 1.332031 10.960938 1.457031 10.699219 1.675781 Z M 13.992188 8.855469 L 14.613281 9.59375 L 16.136719 10.5625 C 16.96875 11.09375 17.78125 11.625 17.9375 11.757812 C 18.242188 12 18.449219 12.125 18.5625 12.125 C 18.664062 12.125 18.585938 11.914062 18.300781 11.414062 C 18.101562 11.082031 17.582031 9.882812 16.894531 8.199219 C 16.867188 8.144531 17.605469 8.125 20.460938 8.125 L 24.0625 8.125 L 24.0625 23.863281 L 22.175781 23.886719 L 20.28125 23.90625 L 19.886719 24.085938 C 19.445312 24.292969 19.117188 24.625 19.011719 24.980469 C 18.980469 25.113281 18.929688 26 18.90625 26.949219 L 18.863281 28.6875 L 8.019531 28.6875 L 7.980469 23.800781 C 7.957031 21.113281 7.9375 16.488281 7.9375 13.519531 L 7.9375 8.125 L 13.367188 8.125 Z M 13.992188 8.855469 "/>
<path style=" stroke:none;fill-rule:nonzero;fill:rgb(0%,0%,0%);fill-opacity:1;" d="M 12.65625 15.3125 C 11.96875 15.539062 11.386719 16.101562 11.117188 16.792969 C 10.925781 17.300781 10.882812 18.367188 11.03125 18.929688 C 11.394531 20.335938 12.355469 21.023438 13.792969 20.917969 C 14.375 20.875 14.945312 20.617188 15.28125 20.242188 C 15.539062 19.957031 15.875 19.292969 15.894531 19.023438 C 15.90625 18.863281 15.882812 18.851562 15.46875 18.742188 C 15.230469 18.679688 15 18.625 14.960938 18.625 C 14.917969 18.625 14.84375 18.773438 14.78125 18.949219 C 14.570312 19.617188 14.15625 19.929688 13.492188 19.9375 C 12.976562 19.9375 12.542969 19.695312 12.304688 19.28125 C 11.8125 18.398438 11.988281 16.90625 12.636719 16.4375 C 13.386719 15.894531 14.460938 16.164062 14.699219 16.957031 C 14.738281 17.085938 14.804688 17.210938 14.84375 17.230469 C 14.886719 17.242188 15.125 17.207031 15.382812 17.136719 C 15.90625 17.007812 15.90625 17.011719 15.644531 16.425781 C 15.457031 16 15.007812 15.550781 14.574219 15.355469 C 14.148438 15.164062 13.175781 15.144531 12.65625 15.3125 Z M 12.65625 15.3125 "/>
<path style=" stroke:none;fill-rule:nonzero;fill:rgb(0%,0%,0%);fill-opacity:1;" d="M 15.75 15.261719 C 15.75 15.273438 16.238281 16.53125 16.832031 18.0625 L 17.914062 20.84375 L 18.894531 20.84375 L 19.945312 18.15625 C 20.523438 16.675781 21.019531 15.417969 21.039062 15.355469 C 21.070312 15.261719 21.019531 15.25 20.507812 15.25 C 20.195312 15.25 19.9375 15.257812 19.9375 15.269531 C 19.9375 15.304688 18.4375 19.335938 18.414062 19.355469 C 18.398438 19.367188 18.0625 18.449219 17.65625 17.3125 L 16.917969 15.25 L 16.335938 15.25 C 16.011719 15.25 15.75 15.257812 15.75 15.261719 Z M 15.75 15.261719 "/>
</g>
</svg>
