<?xml version="1.0" encoding="UTF-8"?>
<svg xmlns="http://www.w3.org/2000/svg" xmlns:xlink="http://www.w3.org/1999/xlink" width="64px" height="64px" viewBox="0 0 64 64" version="1.1">
<g id="surface1">
<path style="fill:none;stroke-width:2;stroke-linecap:round;stroke-linejoin:round;stroke:rgb(0%,0%,0%);stroke-opacity:1;stroke-miterlimit:4;" d="M 13.000488 9 L 15 15 L 16.999512 9 M 10.000488 15 C 9.068848 15 8.601562 15 8.235352 14.847656 C 7.744629 14.645508 7.35498 14.255859 7.152832 13.765137 C 7.000488 13.397461 7.000488 12.931641 7.000488 12 C 7.000488 11.068359 7.000488 10.602539 7.152832 10.234863 C 7.35498 9.744141 7.744629 9.355957 8.235352 9.152344 C 8.601562 9 9.068848 9 10.000488 9 M 7.199707 19.999512 L 16.800293 19.999512 C 17.919434 19.999512 18.480469 19.999512 18.908203 19.782715 C 19.284668 19.59082 19.59082 19.284668 19.782715 18.908203 C 19.999512 18.480469 19.999512 17.919434 19.999512 16.800293 L 19.999512 7.199707 C 19.999512 6.080566 19.999512 5.519531 19.782715 5.091797 C 19.59082 4.715332 19.284668 4.40918 18.908203 4.217285 C 18.480469 4.000488 17.919434 4.000488 16.800293 4.000488 L 7.199707 4.000488 C 6.080566 4.000488 5.519531 4.000488 5.091797 4.217285 C 4.715332 4.40918 4.40918 4.715332 4.217285 5.091797 C 4.000488 5.519531 4.000488 6.080566 4.000488 7.199707 L 4.000488 16.800293 C 4.000488 17.919434 4.000488 18.480469 4.217285 18.908203 C 4.40918 19.284668 4.715332 19.59082 5.091797 19.782715 C 5.519531 19.999512 6.080566 19.999512 7.199707 19.999512 Z M 7.199707 19.999512 " transform="matrix(2.666667,0,0,2.666667,0,0)"/>
</g>
</svg>
