<?xml version="1.0" standalone="no"?>
<!DOCTYPE svg PUBLIC "-//W3C//DTD SVG 20010904//EN"
 "http://www.w3.org/TR/2001/REC-SVG-20010904/DTD/svg10.dtd">
<svg version="1.0" xmlns="http://www.w3.org/2000/svg"
 width="512.000000pt" height="512.000000pt" viewBox="0 0 512.000000 512.000000"
 preserveAspectRatio="xMidYMid meet">

<g transform="translate(0.000000,512.000000) scale(0.100000,-0.100000)"
fill="#000000" stroke="none">
<path d="M1712 4852 c-194 -163 -242 -207 -242 -222 0 -22 8 -31 217 -278 95
-112 173 -208 173 -213 0 -5 -154 -9 -379 -9 -219 0 -390 -4 -405 -10 -14 -5
-43 -28 -65 -50 -78 -80 -72 84 -69 -1905 l3 -1780 30 -60 c25 -50 38 -64 80
-85 l49 -25 1031 -3 1031 -3 507 477 507 477 0 1404 c0 1244 -2 1408 -15 1441
-21 49 -52 81 -100 103 -38 18 -83 19 -820 19 l-781 0 -36 38 c-37 38 -434
506 -551 648 -37 45 -74 84 -82 88 -9 3 -41 -17 -83 -52z m527 -1149 l99 -118
244 -155 c133 -85 263 -170 288 -191 49 -39 82 -59 100 -59 16 0 4 34 -42 114
-32 53 -115 245 -225 514 -4 9 114 12 571 12 l576 0 0 -1259 0 -1259 -302 -4
-303 -3 -63 -29 c-71 -33 -123 -86 -140 -143 -5 -21 -13 -163 -17 -315 l-7
-278 -867 0 -868 0 -6 782 c-4 430 -7 1170 -7 1645 l0 863 435 0 434 0 100
-117z"/>
<path d="M2025 2670 c-110 -36 -203 -126 -246 -237 -31 -81 -38 -252 -14 -342
58 -225 212 -335 442 -318 93 7 184 48 238 108 41 46 95 152 98 195 2 26 -2
28 -68 45 -38 10 -75 19 -81 19 -7 0 -19 -24 -29 -52 -34 -107 -100 -157 -206
-158 -83 0 -152 39 -190 105 -79 141 -51 380 53 455 120 87 292 44 330 -83 6
-21 17 -41 23 -44 7 -2 45 4 86 15 84 21 84 20 42 114 -30 68 -102 140 -171
171 -68 31 -224 34 -307 7z"/>
<path d="M2520 2678 c0 -2 78 -203 173 -448 l173 -445 78 0 79 0 168 430 c93
237 172 438 175 448 5 15 -3 17 -85 17 -50 0 -91 -1 -91 -3 0 -6 -240 -651
-244 -654 -2 -2 -56 145 -121 327 l-118 330 -93 0 c-52 0 -94 -1 -94 -2z"/>
</g>
</svg>
